# xmcd
#
# Track frame offsets: 
#        150
#        19840
#        36524
#        54107
#        67571
#        84976
#        107450
#        123812
#        140802
#        157175
#
# Disc length: 2348 seconds
#
# Revision: 0
# Processed by: cddbd v1.5.2PL0 Copyright (c) Steve Scherf et al.
# Submitted via: ExactAudioCopy v1.0b3
#
DISCID=78092a0a
DTITLE=Various Artist - Rock for Life 2
DYEAR=1900
DGENRE=Pop
TTITLE0=ไท - พงพนา
TTITLE1=ใหม่ - คืนรัง
TTITLE2=อี๊ด(Fly) - เดือนเพ็ญ
TTITLE3=มาช่า - ยิ้มเหงาๆเศร้างามๆ
TTITLE4=มิคกี้ - แม้เราจะไม่พบกัน
TTITLE5=แอม  - คิดถึงบ้าน
TTITLE6=มิคกี้ - วันเวลา
TTITLE7=มาช่า - ดวงดาว ดวงตา ดวงใจ
TTITLE8=แอม  - แสงดาวแห่งศรัทธา
TTITLE9=หมู่ - กำลังใจ
EXTD=
EXTT0=
EXTT1=
EXTT2=
EXTT3=
EXTT4=
EXTT5=
EXTT6=
EXTT7=
EXTT8=
EXTT9=
PLAYORDER=
